<?xml version="1.0" standalone="no"?>
<!DOCTYPE svg PUBLIC "-//W3C//DTD SVG 20010904//EN"
 "http://www.w3.org/TR/2001/REC-SVG-20010904/DTD/svg10.dtd">
<svg version="1.0" xmlns="http://www.w3.org/2000/svg"
 width="300.000000pt" height="300.000000pt" viewBox="0 0 300.000000 300.000000"
 preserveAspectRatio="xMidYMid meet">
<metadata>
Created by potrace 1.10, written by Peter Selinger 2001-2011
</metadata>
<g transform="translate(0.000000,300.000000) scale(0.100000,-0.100000)"
fill="#000000" stroke="none">
<path d="M1418 2365 c-230 -58 -360 -221 -432 -545 -40 -181 -51 -348 -37
-557 10 -152 9 -192 -4 -273 -26 -157 -47 -209 -127 -302 -182 -215 -276 -411
-302 -635 -6 -49 -5 -53 14 -53 16 0 20 6 20 34 0 104 92 344 191 496 42 65
147 200 156 200 3 0 22 -13 42 -28 103 -81 254 -154 401 -194 70 -19 109 -22
225 -22 169 1 252 20 395 91 52 27 98 49 102 51 3 2 9 -6 13 -18 12 -38 66
-90 137 -132 37 -22 70 -44 73 -47 2 -4 -37 3 -88 16 -90 23 -93 23 -147 7
-68 -21 -118 -50 -124 -72 -9 -30 -14 -84 -21 -197 -3 -60 -8 -127 -11 -147
-5 -30 -2 -38 9 -38 17 0 23 36 32 215 9 169 8 166 68 193 29 12 54 22 57 22
3 0 0 -78 -7 -172 -6 -95 -11 -193 -11 -218 l0 -45 9 40 c4 22 8 65 8 95 1 51
22 301 27 308 1 2 77 -13 170 -32 93 -19 213 -40 267 -47 l98 -13 -5 -38 c-3
-21 -9 -56 -12 -78 -4 -25 -11 -40 -20 -40 -10 0 -12 10 -8 43 7 48 -11 73
-46 64 -16 -4 -20 0 -20 20 0 36 -24 23 -30 -17 -6 -41 -30 -53 -30 -15 0 20
-4 26 -17 23 -14 -3 -19 -17 -24 -73 -3 -39 -6 -53 -7 -32 -2 27 -6 37 -18 37
-12 0 -14 5 -9 18 26 59 -5 91 -54 54 -15 -11 -42 -23 -59 -27 -22 -4 -36 -15
-43 -32 -11 -29 -11 -33 -1 -32 20 3 21 -3 7 -30 -17 -35 -43 -56 -30 -25 4
10 9 48 9 84 1 59 3 65 24 68 16 3 22 10 22 28 0 27 -20 31 -82 13 -31 -8 -38
-15 -38 -34 0 -15 6 -25 14 -25 14 0 32 -103 21 -121 -4 -5 -19 -9 -35 -9 -27
0 -40 -15 -40 -46 0 -11 6 -13 23 -8 21 7 48 11 90 13 11 1 20 12 24 31 11 57
21 40 28 -46 7 -79 9 -85 29 -82 16 2 21 10 21 33 1 20 6 31 17 33 13 2 18 16
20 54 2 29 8 53 15 55 14 5 19 -14 28 -100 6 -55 8 -58 24 -43 25 23 28 20 27
-20 -1 -23 4 -39 13 -42 9 -3 11 1 7 16 -9 26 15 73 48 100 41 32 18 33 -32 1
-57 -36 -72 -19 -21 23 69 58 152 47 218 -28 22 -26 46 -62 53 -80 12 -33 28
-46 28 -22 0 40 -85 153 -127 169 -7 3 -7 30 0 81 5 43 7 83 4 90 -3 8 -52 20
-128 32 -114 17 -127 21 -159 51 -19 18 -69 51 -110 74 -87 48 -123 86 -149
156 -17 44 -20 93 -26 367 l-8 317 24 10 c13 5 39 15 57 22 19 6 40 22 48 34
22 33 37 133 29 194 -6 46 -13 62 -45 93 -31 31 -45 38 -78 38 -48 0 -48 0
-57 125 -16 211 -59 330 -150 413 -80 73 -142 95 -285 98 -76 2 -134 -2 -172
-11z m324 -44 c103 -40 186 -136 223 -258 8 -26 15 -52 15 -58 0 -6 -53 -10
-138 -11 -224 -1 -348 -41 -382 -123 -19 -46 -1 -77 57 -103 42 -19 66 -21
208 -20 87 0 185 3 215 7 53 6 57 5 68 -19 10 -23 18 -26 60 -26 60 0 91 -28
102 -92 9 -49 -5 -153 -24 -183 -8 -11 -36 -28 -63 -37 -55 -19 -72 -44 -67
-93 2 -16 8 -158 14 -315 l11 -285 -23 -19 c-13 -10 -51 -32 -86 -48 -170 -78
-412 -88 -649 -28 -100 26 -245 97 -305 150 -46 40 -47 41 -33 73 7 18 21 78
31 134 15 90 16 121 6 280 -23 368 32 692 147 870 69 107 183 188 306 220 77
19 237 11 307 -16z m241 -348 c3 -5 8 -49 12 -99 l7 -91 -75 -7 c-42 -4 -140
-7 -218 -7 -124 0 -147 3 -185 22 -36 17 -44 26 -44 48 0 45 47 84 135 111 22
7 110 16 195 19 85 4 158 8 162 9 4 1 9 -1 11 -5z m-893 -1317 c143 -74 294
-108 485 -108 187 0 335 33 430 97 42 29 45 30 45 10 0 -20 -187 -109 -270
-129 -253 -60 -546 -1 -782 156 -48 33 -88 63 -88 67 0 21 16 16 63 -20 29
-21 81 -54 117 -73z m1274 -391 c-5 -28 -3 -35 10 -35 9 0 16 -8 15 -17 0 -11
-3 -13 -6 -5 -6 15 -39 16 -48 2 -4 -6 -8 -29 -10 -51 -4 -39 -11 -57 -19 -48
-2 2 -6 41 -8 86 -4 75 -3 82 16 92 12 5 29 10 39 10 15 1 17 -4 11 -34z m135
-27 c-1 -48 -2 -50 -9 -20 -7 30 -3 72 6 72 2 0 4 -24 3 -52z m49 30 c7 -7 12
-25 12 -40 0 -23 -4 -28 -25 -28 -30 0 -33 16 -5 23 11 3 20 10 20 17 0 7 -9
14 -20 17 -11 3 -20 9 -20 14 0 13 24 11 38 -3z m-263 -40 c4 -24 5 -65 3 -93
l-3 -50 -14 60 c-12 52 -16 91 -12 118 1 4 5 7 10 7 6 0 13 -19 16 -42z m153
5 c-6 -7 -8 -27 -6 -43 3 -17 1 -33 -4 -36 -10 -6 -11 100 -1 109 12 12 22
-17 11 -30z m40 -30 c-4 -36 -38 -45 -38 -10 0 27 7 37 27 37 10 0 13 -9 11
-27z"/>
<path d="M1525 2308 c-150 -178 -259 -747 -241 -1253 7 -199 38 -457 52 -442
3 3 -2 45 -10 93 -90 514 5 1295 189 1570 48 71 51 81 10 32z"/>
<path d="M1585 2320 c49 -241 70 -332 73 -319 3 19 -55 291 -69 323 -9 19 -9
19 -4 -4z"/>
<path d="M1699 2292 c28 -40 63 -126 87 -216 10 -38 19 -65 21 -60 5 16 -45
181 -71 233 -14 26 -32 54 -42 62 -13 10 -12 5 5 -19z"/>
<path d="M1280 2235 c-74 -120 -150 -429 -179 -729 -25 -255 -7 -662 34 -786
17 -51 14 -30 -12 105 -28 144 -25 617 5 823 36 245 105 491 164 590 11 17 17
32 15 32 -3 0 -15 -16 -27 -35z"/>
<path d="M1871 2189 c-1 -3 10 -32 24 -65 13 -32 24 -52 24 -44 0 15 -47 120
-48 109z"/>
<path d="M1696 1675 c3 -33 9 -233 15 -445 9 -378 22 -616 34 -629 4 -3 4 26
1 64 -18 222 -26 404 -31 685 -3 173 -10 331 -15 350 -8 29 -8 24 -4 -25z"/>
<path d="M1865 1695 c2 -22 11 -103 20 -180 9 -77 20 -192 25 -255 l9 -115 -5
125 c-4 133 -29 372 -45 430 l-9 35 5 -40z"/>
<path d="M1991 1714 c-1 -10 19 -92 65 -259 12 -45 13 -46 8 -10 -4 35 -25
118 -62 245 -5 19 -10 30 -11 24z"/>
<path d="M1920 1133 c1 -73 -10 -429 -14 -458 l-6 -40 10 35 c11 40 26 470 17
470 -4 0 -7 -3 -7 -7z"/>
<path d="M1710 1885 c-16 -20 -6 -45 19 -45 26 0 34 15 21 40 -13 24 -23 25
-40 5z"/>
<path d="M1868 1878 c-8 -21 2 -38 22 -38 23 0 32 13 24 34 -7 19 -40 21 -46
4z"/>
<path d="M2313 264 c-7 -18 11 -39 26 -30 17 11 13 46 -4 46 -9 0 -18 -7 -22
-16z"/>
<path d="M1993 368 c-16 -8 -23 -20 -23 -39 0 -26 2 -28 25 -19 16 6 25 6 25
0 0 -5 -11 -12 -24 -16 -14 -3 -27 -13 -30 -21 -4 -11 -2 -13 9 -9 8 3 22 9
30 12 10 4 15 0 15 -14 0 -22 -40 -38 -51 -20 -4 6 -9 -20 -11 -58 -2 -38 -1
-73 3 -78 4 -4 20 -2 36 6 l28 13 3 128 c1 70 -1 127 -5 126 -4 0 -18 -5 -30
-11z m18 -168 c5 0 9 -5 9 -11 0 -15 -43 -7 -48 10 -3 10 0 12 12 8 10 -4 22
-7 27 -7z"/>
<path d="M855 348 c-3 -7 -16 -70 -30 -140 -26 -134 -32 -208 -15 -208 6 0 10
17 10 39 0 21 7 78 16 127 28 160 35 227 19 182z"/>
</g>
</svg>
